<?xml version="1.0" standalone="no"?>
<!DOCTYPE svg PUBLIC "-//W3C//DTD SVG 20010904//EN"
 "http://www.w3.org/TR/2001/REC-SVG-20010904/DTD/svg10.dtd">
<svg version="1.0" xmlns="http://www.w3.org/2000/svg"
 width="4000.000000pt" height="4000.000000pt" viewBox="0 0 4000.000000 4000.000000"
 preserveAspectRatio="xMidYMid meet">

<g transform="translate(0.000000,4000.000000) scale(0.100000,-0.100000)"
fill="#000000" stroke="none">
<path d="M14965 34929 c-1274 -44 -2464 -537 -3329 -1379 -633 -616 -1050
-1361 -1166 -2086 -24 -147 -36 -436 -22 -504 l10 -45 1 60 c7 397 204 946
509 1420 257 399 654 822 1063 1132 576 437 1263 746 2004 902 851 180 1866
156 2595 -61 229 -68 556 -213 742 -329 425 -265 743 -649 917 -1108 42 -109
95 -318 118 -461 25 -161 25 -547 -1 -710 -38 -241 -110 -475 -211 -685 -52
-108 -180 -311 -234 -370 -87 -96 -17 -41 84 65 283 299 487 761 551 1250 23
180 15 546 -16 720 -149 829 -687 1484 -1520 1848 -449 197 -989 315 -1535
337 -286 11 -355 12 -560 4z"/>
<path d="M19578 34679 c-501 -34 -997 -225 -1398 -538 -120 -94 -122 -96 -50
-56 376 209 697 318 1075 366 235 30 596 12 860 -42 862 -178 1627 -763 2005
-1534 171 -347 253 -685 266 -1100 26 -760 -220 -1517 -675 -2083 -303 -376
-665 -618 -1075 -717 -54 -14 -101 -27 -105 -31 -7 -7 119 2 229 17 265 36
564 170 844 377 123 91 376 342 476 472 338 440 557 958 641 1520 21 135 24
192 24 445 0 296 -6 371 -46 584 -80 420 -279 851 -548 1189 -469 588 -1173
997 -1906 1106 -217 32 -400 40 -617 25z"/>
<path d="M10605 30785 c-863 -100 -1617 -550 -2072 -1237 -403 -609 -535
-1430 -348 -2153 45 -173 83 -275 165 -440 129 -261 263 -449 464 -650 583
-582 1468 -898 2396 -854 532 25 979 142 1427 373 118 62 363 211 363 221 0 2
-55 -23 -122 -55 -512 -243 -1042 -353 -1623 -337 -387 11 -679 62 -1027 178
-801 266 -1385 798 -1617 1474 -86 248 -121 468 -121 753 0 620 188 1152 565
1601 622 739 1712 1105 2640 886 317 -75 590 -214 860 -437 35 -29 33 -25 -17
33 -282 324 -738 554 -1258 634 -146 23 -518 28 -675 10z"/>
<path d="M20400 28923 c-30 -2 -228 -15 -440 -28 -1200 -76 -2283 -277 -3305
-612 -1123 -368 -2121 -890 -2910 -1522 -153 -122 -450 -388 -545 -487 l-65
-68 55 45 c168 138 226 184 335 266 470 352 1052 692 1639 955 1210 542 2606
885 4121 1013 312 26 723 50 731 43 2 -3 -4 -34 -15 -69 -46 -154 -83 -364
-102 -579 -14 -165 -6 -557 15 -719 40 -297 111 -589 204 -828 l39 -100 -346
-6 c-368 -6 -583 -23 -900 -73 -1090 -169 -2201 -597 -3366 -1297 -312 -187
-836 -537 -1102 -736 l-41 -31 -63 157 c-218 554 -403 898 -642 1195 -84 105
-442 478 -459 478 -20 0 -416 -312 -649 -511 -1152 -987 -2070 -2152 -2770
-3514 -707 -1377 -1134 -2926 -1238 -4495 -52 -777 -29 -1508 75 -2320 118
-930 405 -2000 769 -2874 386 -927 855 -1752 1451 -2553 381 -512 813 -999
1287 -1452 2008 -1916 4591 -3040 7382 -3211 94 -6 330 -13 525 -16 2353 -41
4667 642 6640 1959 475 318 864 616 1275 981 238 211 822 796 1014 1016 1336
1527 2224 3298 2651 5282 50 234 122 673 160 970 164 1306 99 2683 -186 3953
-590 2629 -2061 4945 -4194 6607 -1493 1162 -3273 1936 -5150 2238 -291 47
-670 95 -692 88 -5 -2 66 -14 159 -27 376 -51 1021 -191 1455 -316 1302 -376
2576 -1001 3618 -1778 507 -378 848 -673 1305 -1131 305 -305 449 -462 700
-763 1246 -1492 2088 -3288 2439 -5203 270 -1475 233 -3087 -105 -4548 -176
-758 -427 -1493 -748 -2188 -584 -1265 -1406 -2419 -2404 -3373 -481 -461
-910 -810 -1439 -1173 -1468 -1008 -3156 -1651 -4917 -1873 -517 -65 -756 -79
-1371 -79 -771 -1 -1161 28 -1839 139 -1164 191 -2261 550 -3291 1078 -1253
642 -2355 1500 -3315 2582 -449 506 -929 1175 -1286 1792 -396 686 -746 1480
-979 2223 -286 915 -428 1683 -502 2715 -20 282 -17 1090 5 1405 104 1453 461
2830 1060 4085 737 1544 1755 2841 3087 3931 96 79 180 144 187 144 18 0 174
-198 271 -345 212 -318 361 -662 563 -1292 40 -128 77 -233 81 -233 4 0 74 43
155 96 1047 684 2024 1177 2963 1496 483 163 993 288 1445 353 517 74 963 85
1568 40 197 -15 361 -25 363 -22 3 3 -49 102 -116 221 -139 248 -181 334 -243
507 -72 197 -142 504 -163 713 l-7 67 109 -6 c60 -2 196 -7 303 -10 562 -16
1250 -103 1836 -231 1996 -439 3798 -1436 5230 -2895 211 -215 410 -436 481
-531 65 -89 139 -247 171 -363 24 -90 27 -117 27 -275 0 -157 -3 -185 -26
-271 -36 -134 -78 -230 -149 -339 -112 -174 -304 -338 -482 -413 -170 -71
-1324 -456 -2027 -676 -1662 -519 -3373 -971 -5095 -1345 -388 -84 -485 -98
-670 -97 -185 0 -301 22 -422 80 -157 76 -236 150 -418 396 -178 241 -259 312
-410 362 -70 23 -96 26 -210 26 -108 1 -155 -5 -280 -31 -663 -140 -2394 -707
-5040 -1652 -1066 -381 -1718 -620 -1737 -637 -39 -36 -11 -113 41 -113 12 0
1160 306 2551 680 1535 413 2546 680 2572 680 86 -1 173 -65 203 -149 33 -95
10 -190 -63 -252 -38 -32 -221 -91 -2509 -807 -1358 -425 -2493 -780 -2522
-790 -73 -23 -88 -46 -72 -116 14 -61 39 -90 78 -88 16 1 1173 281 2573 622
2040 498 2554 621 2592 617 72 -6 136 -50 171 -117 26 -49 28 -62 24 -119 -5
-68 -36 -125 -89 -164 -15 -12 -1082 -341 -2549 -788 -1803 -549 -2528 -774
-2543 -788 -19 -19 -19 -25 -8 -77 14 -67 35 -94 73 -94 15 0 1174 270 2576
601 2806 662 2620 623 2706 563 27 -19 52 -49 70 -84 25 -48 28 -64 25 -126
-4 -81 -28 -127 -88 -169 -26 -18 -697 -208 -2550 -725 -1383 -385 -2530 -707
-2547 -715 -57 -25 -54 -107 3 -121 31 -8 31 -8 1004 177 3211 610 5474 1106
6065 1328 198 75 324 163 404 281 74 112 99 205 125 479 9 91 24 199 32 240
62 301 256 510 628 678 174 79 1211 416 2086 679 1837 553 3657 1005 5585
1388 845 168 794 159 955 159 150 0 228 -12 352 -54 275 -92 514 -301 643
-562 52 -105 159 -410 246 -702 219 -731 351 -1444 415 -2235 21 -271 30 -980
15 -1278 -132 -2619 -1206 -5037 -3061 -6892 -1595 -1595 -3655 -2636 -5865
-2964 -1664 -247 -3419 -80 -4999 476 -2088 734 -3865 2092 -5148 3931 -186
266 -255 430 -278 652 -50 496 247 974 716 1151 144 54 1572 469 2419 702
3148 869 5896 1469 6489 1417 l80 -7 95 -90 c1210 -1145 2802 -1459 4486 -884
852 290 1677 799 2324 1431 817 800 1205 1626 1036 2210 -170 584 -950 1134
-2030 1430 -1242 340 -2595 292 -3692 -131 -912 -351 -1637 -958 -2112 -1768
-131 -222 -275 -537 -366 -800 l-52 -148 -54 -35 c-672 -434 -4933 -1530
-8979 -2309 -417 -81 -453 -86 -580 -87 -94 0 -161 5 -220 17 -344 73 -628
288 -779 592 -53 106 -75 176 -116 363 -263 1203 -311 2469 -139 3696 342
2439 1546 4684 3404 6345 124 111 373 320 457 385 34 26 50 45 47 55 -11 32
-88 160 -96 160 -14 0 -333 -260 -528 -431 -342 -298 -868 -842 -1181 -1219
-1372 -1655 -2223 -3716 -2414 -5845 -56 -624 -59 -1279 -9 -1880 227 -2751
1487 -5279 3552 -7128 1083 -970 2368 -1716 3752 -2178 934 -311 1862 -485
2875 -539 406 -21 997 -11 1435 26 1813 150 3543 755 5060 1769 1190 795 2179
1784 2975 2975 588 879 1041 1834 1346 2840 529 1743 603 3634 213 5420 -380
1739 -1188 3353 -2356 4710 -363 422 -814 866 -1243 1225 -1555 1300 -3403
2121 -5410 2404 -430 61 -977 101 -1369 101 l-169 0 6 213 c6 189 14 292 32
395 l6 32 222 0 c122 0 304 -5 403 -11 100 -6 190 -9 200 -7 29 6 -365 37
-600 48 -115 6 -211 12 -214 15 -16 15 115 449 199 663 16 40 29 77 29 82 0
10 -33 10 -150 3z m3411 -8644 c-193 -77 -1677 -601 -2711 -956 -913 -314
-1250 -444 -1307 -505 -54 -58 -89 -177 -128 -438 -72 -482 -125 -649 -251
-789 -135 -150 -444 -281 -1094 -465 -354 -100 -1113 -278 -1174 -276 -6 1
156 59 359 129 882 306 1368 498 1594 631 209 122 260 242 316 750 50 452 121
620 306 723 354 198 1897 668 3434 1047 264 65 516 127 560 138 88 22 138 28
96 11z m4700 -3396 c-116 -293 -205 -482 -323 -686 -640 -1110 -1681 -1855
-2998 -2146 -561 -124 -1238 -154 -1815 -81 -454 58 -823 159 -1123 306 -84
42 -152 78 -150 80 3 2 44 -12 94 -32 184 -73 527 -147 829 -179 758 -79 1629
1 2370 220 1353 399 2371 1208 3047 2422 44 79 82 143 84 143 2 0 -5 -21 -15
-47z"/>
<path d="M21203 28103 c9 -2 25 -2 35 0 9 3 1 5 -18 5 -19 0 -27 -2 -17 -5z"/>
<path d="M21528 28073 c7 -3 16 -2 19 1 4 3 -2 6 -13 5 -11 0 -14 -3 -6 -6z"/>
<path d="M27563 13655 c-91 -20 -192 -77 -256 -144 -46 -48 -76 -99 -177 -302
-411 -821 -855 -1431 -1506 -2069 -673 -659 -1461 -1179 -2344 -1547 -1659
-691 -3563 -753 -5269 -171 -743 253 -1413 606 -2056 1082 -179 133 -233 161
-348 179 -229 36 -469 -112 -547 -338 -57 -166 -19 -360 97 -495 94 -110 641
-486 1043 -718 1100 -635 2330 -1006 3655 -1104 369 -27 1007 -15 1430 28
2882 288 5432 2055 6737 4669 110 219 136 283 148 363 40 258 -138 512 -397
567 -82 18 -129 18 -210 0z"/>
</g>
</svg>
